<svg viewBox="6.7 6.2 16 16" xmlns="http://www.w3.org/2000/svg">
  <path fill="#ffffff" d="M 19.781 9.646 L 17.45 9.646 C 17.151 9.646 16.964 9.321 17.114 9.061 C 17.185 8.941 17.311 8.866 17.45 8.866 L 19.781 8.866 C 20.083 8.866 20.271 9.191 20.122 9.451 C 20.052 9.571 19.922 9.646 19.781 9.646 Z M 14.048 19.037 C 13.402 19.035 12.763 18.877 12.189 18.575 C 11.669 18.315 11.214 17.949 10.843 17.503 C 10.651 17.271 10.779 16.919 11.075 16.87 C 11.108 16.864 11.143 16.864 11.176 16.864 C 12.51 16.983 13.787 16.295 14.424 15.117 C 15.004 13.958 14.871 12.571 14.083 11.542 C 13.898 11.306 14.041 10.957 14.336 10.916 C 14.373 10.912 14.411 10.912 14.445 10.916 C 14.993 10.994 15.496 11.15 15.899 11.369 C 16.867 11.861 17.595 12.725 17.919 13.761 C 18.243 14.788 18.141 15.88 17.638 16.84 C 16.954 18.192 15.563 19.039 14.048 19.037 Z M 12.096 17.611 C 12.239 17.713 12.39 17.804 12.546 17.882 C 14.148 18.729 16.132 18.097 16.947 16.48 C 17.357 15.704 17.438 14.823 17.178 13.995 C 16.912 13.154 16.321 12.457 15.537 12.058 C 15.428 12.001 15.316 11.949 15.201 11.906 C 15.706 13.048 15.675 14.359 15.116 15.477 C 14.505 16.625 13.384 17.418 12.096 17.611 Z M 10.479 14.812 C 10.265 14.812 10.089 14.636 10.089 14.422 L 10.089 12.09 C 10.089 11.789 10.414 11.601 10.674 11.752 C 10.794 11.822 10.869 11.949 10.869 12.09 L 10.869 14.422 C 10.869 14.636 10.695 14.812 10.479 14.812 Z" transform="matrix(0.9999999999999999, 0, 0, 1, 0, 0)"/>
  <path fill="#ffffff" d="M 11.647 13.645 L 9.312 13.645 C 9.013 13.645 8.824 13.319 8.976 13.059 C 9.045 12.94 9.175 12.865 9.312 12.865 L 11.647 12.865 C 11.948 12.865 12.135 13.189 11.985 13.449 C 11.916 13.568 11.786 13.645 11.647 13.645 Z M 18.615 10.812 C 18.401 10.812 18.225 10.637 18.225 10.422 L 18.225 8.091 C 18.225 7.791 18.553 7.603 18.813 7.753 C 18.932 7.824 19.005 7.952 19.005 8.091 L 19.005 10.422 C 19.005 10.637 18.83 10.812 18.615 10.812 Z M 19.372 18.43 C 19.161 18.43 18.982 18.258 18.982 18.04 L 18.982 16.467 C 18.982 16.168 19.307 15.982 19.567 16.129 C 19.69 16.199 19.762 16.329 19.762 16.467 L 19.762 18.04 C 19.762 18.258 19.588 18.43 19.372 18.43 Z" transform="matrix(0.9999999999999999, 0, 0, 1, 0, 0)"/>
  <path fill="#ffffff" d="M 20.161 17.644 L 18.615 17.644 C 18.317 17.644 18.13 17.321 18.278 17.061 C 18.348 16.937 18.478 16.864 18.615 16.864 L 20.161 16.864 C 20.464 16.864 20.648 17.191 20.498 17.451 C 20.427 17.569 20.299 17.644 20.161 17.644 Z M 9.881 20.7 C 9.665 20.7 9.491 20.523 9.491 20.31 L 9.491 18.768 C 9.491 18.465 9.816 18.279 10.076 18.43 C 10.196 18.5 10.271 18.627 10.271 18.768 L 10.271 20.31 C 10.271 20.523 10.096 20.7 9.881 20.7 Z" transform="matrix(0.9999999999999999, 0, 0, 1, 0, 0)"/>
  <path fill="#ffffff" d="M 10.669 19.908 L 9.091 19.908 C 8.791 19.908 8.603 19.583 8.753 19.323 C 8.824 19.206 8.952 19.128 9.091 19.128 L 10.669 19.128 C 10.968 19.128 11.156 19.453 11.006 19.713 C 10.937 19.839 10.807 19.908 10.669 19.908 Z" transform="matrix(0.9999999999999999, 0, 0, 1, 0, 0)"/>
</svg>