<svg viewBox="4.7 4.7 16 16" xmlns="http://www.w3.org/2000/svg">
  <path fill="#ffffff" d="M 12.682 16.025 C 11.891 16.025 11.122 15.757 10.503 15.263 C 9.786 14.683 9.332 13.84 9.241 12.922 C 9.145 12.004 9.419 11.085 10.004 10.371 C 10.57 9.661 11.399 9.208 12.304 9.117 C 13.229 9.013 14.155 9.287 14.876 9.876 C 15.061 10.008 15.238 10.184 15.383 10.388 C 15.512 10.589 15.376 10.853 15.137 10.865 C 15.036 10.869 14.94 10.825 14.879 10.746 C 14.775 10.6 14.647 10.472 14.501 10.368 C 13.906 9.878 13.137 9.648 12.37 9.731 C 11.629 9.807 10.95 10.178 10.486 10.76 C 10.004 11.347 9.779 12.102 9.857 12.858 C 9.936 13.619 10.302 14.301 10.892 14.781 C 12.124 15.758 13.919 15.568 14.89 14.352 C 15.039 14.166 15.333 14.21 15.421 14.433 C 15.461 14.535 15.444 14.652 15.374 14.738 C 14.72 15.556 13.729 16.029 12.682 16.025 Z M 12.702 8.072 C 12.53 8.072 12.392 7.933 12.392 7.763 L 12.392 6.511 C 12.392 6.272 12.65 6.123 12.856 6.242 C 12.952 6.298 13.012 6.4 13.012 6.511 L 13.012 7.763 C 13.012 7.933 12.872 8.072 12.702 8.072 Z M 12.702 19.159 C 12.53 19.159 12.392 19.021 12.392 18.849 L 12.392 17.622 C 12.392 17.384 12.65 17.235 12.856 17.354 C 12.952 17.409 13.012 17.511 13.012 17.622 L 13.012 18.849 C 13.012 19.021 12.872 19.159 12.702 19.159 Z M 7.739 13.002 L 6.511 13.002 C 6.272 13.002 6.123 12.744 6.242 12.538 C 6.298 12.442 6.4 12.383 6.511 12.383 L 7.739 12.383 C 7.977 12.383 8.126 12.641 8.008 12.848 C 7.953 12.944 7.85 13.002 7.739 13.002 Z M 17.062 17.357 C 16.98 17.357 16.901 17.325 16.843 17.266 L 15.966 16.392 C 15.798 16.223 15.873 15.936 16.104 15.873 C 16.211 15.844 16.325 15.874 16.404 15.953 L 17.28 16.827 C 17.45 16.995 17.373 17.284 17.142 17.346 C 17.116 17.353 17.089 17.357 17.062 17.357 Z M 9.192 9.499 C 9.11 9.499 9.031 9.467 8.974 9.408 L 8.096 8.534 C 7.927 8.365 8.003 8.077 8.233 8.014 C 8.34 7.986 8.455 8.016 8.534 8.094 L 9.411 8.969 C 9.581 9.136 9.505 9.424 9.275 9.487 C 9.248 9.495 9.22 9.499 9.192 9.499 Z M 8.314 17.357 C 8.076 17.357 7.927 17.099 8.047 16.892 C 8.059 16.868 8.077 16.846 8.096 16.827 L 8.974 15.953 C 9.143 15.785 9.431 15.863 9.491 16.093 C 9.521 16.199 9.489 16.314 9.411 16.392 L 8.534 17.266 C 8.475 17.325 8.396 17.357 8.314 17.357 Z M 16.184 9.499 C 15.947 9.499 15.798 9.241 15.917 9.034 C 15.931 9.011 15.947 8.988 15.966 8.97 L 16.843 8.095 C 17.013 7.927 17.3 8.004 17.361 8.234 C 17.389 8.341 17.359 8.456 17.28 8.534 L 16.404 9.408 C 16.345 9.467 16.266 9.499 16.184 9.499 Z" transform="matrix(1, 0, 0, 1, 8.881784197001252e-16, 0)"/>
  <path fill="#ffffff" d="M 17.813 14.904 L 13.904 14.904 C 13.849 14.904 13.796 14.889 13.748 14.862 C 13.024 14.743 12.491 14.142 12.491 13.419 C 12.491 12.649 13.143 11.996 13.933 11.959 C 14.053 10.973 14.89 10.231 15.883 10.23 C 16.935 10.23 17.799 11.04 17.867 12.061 C 18.612 12.114 19.2 12.726 19.2 13.468 C 19.2 14.223 18.615 14.841 17.838 14.904 L 17.813 14.904 Z M 14.024 14.284 L 17.8 14.284 C 18.247 14.243 18.583 13.894 18.583 13.468 C 18.583 13.032 18.216 12.678 17.764 12.678 C 17.689 12.691 17.614 12.699 17.538 12.702 C 17.327 12.7 17.178 12.493 17.244 12.293 C 17.253 12.269 17.253 12.26 17.253 12.192 C 17.253 11.439 16.652 10.85 15.884 10.85 C 15.142 10.85 14.54 11.45 14.539 12.192 L 14.539 12.293 C 14.539 12.519 14.287 12.623 14.065 12.584 C 13.532 12.6 13.111 12.962 13.111 13.418 C 13.111 13.859 13.462 14.221 13.93 14.26 C 13.962 14.263 13.993 14.271 14.024 14.284 Z" transform="matrix(1, 0, 0, 1, 8.881784197001252e-16, 0)"/>
</svg>