<svg viewBox="5.7 6.8 16 16" xmlns="http://www.w3.org/2000/svg">
  <path fill="#ffffff" d="M 11.581 20.312 C 10.708 20.312 9.847 20.102 9.073 19.698 C 8.375 19.338 7.765 18.834 7.278 18.218 C 7.188 18.105 7.174 17.949 7.244 17.821 C 7.313 17.692 7.441 17.621 7.596 17.631 C 9.547 17.804 11.38 16.821 12.241 15.124 C 13.118 13.485 12.923 11.473 11.752 9.992 C 11.66 9.878 11.648 9.72 11.717 9.592 C 11.787 9.464 11.938 9.385 12.069 9.403 C 12.756 9.467 13.457 9.683 14.094 10.032 C 15.522 10.746 16.556 12.079 16.923 13.682 C 16.969 13.877 16.847 14.072 16.651 14.116 C 16.454 14.172 16.259 14.038 16.215 13.843 C 15.896 12.452 15.002 11.299 13.757 10.678 C 13.46 10.514 13.146 10.381 12.82 10.285 C 13.721 11.888 13.745 13.837 12.887 15.461 C 12.024 17.159 10.325 18.241 8.411 18.365 C 8.712 18.632 9.044 18.863 9.41 19.052 C 11.2 19.98 13.382 19.672 14.847 18.285 C 15.051 18.095 15.386 18.195 15.45 18.468 C 15.48 18.594 15.441 18.727 15.347 18.816 C 14.327 19.776 12.98 20.312 11.581 20.312 Z" transform="matrix(0.9999999999999999, 0, 0, 1, 0, 0)"/>
  <path fill="#ffffff" d="M 18.571 18.857 L 13.98 18.857 C 13.036 18.779 12.32 18.026 12.32 17.141 C 12.32 16.242 13.085 15.475 14.012 15.431 C 14.138 14.259 15.127 13.373 16.305 13.371 C 17.549 13.371 18.571 14.337 18.636 15.55 C 19.509 15.614 20.2 16.33 20.2 17.203 C 20.2 18.093 19.491 18.823 18.585 18.858 C 18.58 18.857 18.575 18.857 18.571 18.857 Z M 14.097 16.155 C 13.529 16.155 13.047 16.606 13.047 17.141 C 13.047 17.642 13.478 18.085 14.01 18.13 L 18.563 18.128 C 19.066 18.113 19.468 17.703 19.473 17.199 C 19.473 16.687 19.042 16.268 18.512 16.268 C 18.449 16.268 18.396 16.268 18.365 16.281 C 18.1 16.371 17.837 16.141 17.89 15.866 C 17.893 15.852 17.897 15.838 17.901 15.823 C 17.913 15.788 17.913 15.735 17.913 15.672 C 17.913 14.802 17.192 14.095 16.305 14.095 C 15.438 14.105 14.738 14.805 14.726 15.672 L 14.726 15.818 C 14.728 16.065 14.486 16.242 14.251 16.166 C 14.216 16.155 14.163 16.155 14.097 16.155 Z" transform="matrix(0.9999999999999999, 0, 0, 1, 0, 0)"/>
</svg>