<svg viewBox="3.1 5.6 16 16" xmlns="http://www.w3.org/2000/svg">
  <path fill="#ffffff" d="M 6.057 14.306 C 5.572 14.306 5.094 14.191 4.663 13.973 C 4.274 13.766 3.932 13.479 3.661 13.13 C 3.59 13.037 3.579 12.911 3.637 12.808 C 3.697 12.707 3.809 12.648 3.925 12.661 C 4.926 12.773 5.889 12.25 6.339 11.35 C 6.794 10.488 6.695 9.439 6.087 8.678 C 5.946 8.502 6.046 8.238 6.27 8.205 C 6.292 8.2 6.314 8.199 6.337 8.201 C 6.682 8.225 7.073 8.343 7.469 8.539 C 8.956 9.32 9.546 11.167 8.787 12.657 C 8.255 13.673 7.203 14.308 6.057 14.306 Z M 4.595 13.234 C 4.702 13.315 4.815 13.387 4.934 13.451 C 6.148 14.067 7.633 13.593 8.265 12.388 C 8.873 11.175 8.401 9.697 7.2 9.062 C 7.113 9.018 7.025 8.979 6.935 8.943 C 7.325 9.798 7.297 10.787 6.861 11.618 C 6.42 12.499 5.572 13.106 4.595 13.234 Z" transform="matrix(0.9999999999999999, 0, 0, 0.9999999999999999, -8.881784197001252e-16, 0)"/>
  <path fill="#ffffff" d="M 16.074 18.911 L 7.836 18.911 C 7.788 18.911 7.742 18.899 7.701 18.878 C 6.313 18.728 5.24 17.548 5.24 16.152 C 5.24 14.63 6.488 13.393 8.025 13.393 C 8.082 13.393 8.145 13.393 8.208 13.396 C 8.249 11.321 9.939 9.647 12.014 9.647 C 14.114 9.647 15.821 11.364 15.821 13.472 C 15.821 13.512 15.82 13.549 15.817 13.586 C 17.333 13.523 18.595 14.732 18.6 16.247 C 18.601 17.659 17.5 18.827 16.091 18.911 L 16.074 18.911 Z M 7.928 18.324 L 16.065 18.324 C 17.664 18.235 18.564 16.448 17.688 15.108 C 17.301 14.518 16.639 14.163 15.932 14.169 C 15.805 14.169 15.656 14.191 15.529 14.212 C 15.332 14.245 15.159 14.073 15.191 13.877 C 15.214 13.732 15.236 13.612 15.236 13.472 C 15.236 11.687 13.791 10.233 12.015 10.233 C 10.239 10.233 8.793 11.687 8.793 13.472 C 8.793 13.504 8.798 13.532 8.804 13.56 C 8.812 13.615 8.819 13.67 8.819 13.733 C 8.819 13.929 8.632 14.071 8.445 14.014 C 8.317 13.978 8.182 13.978 8.026 13.978 C 6.813 13.978 5.827 14.953 5.827 16.151 C 5.827 17.271 6.71 18.215 7.836 18.301 C 7.867 18.303 7.898 18.312 7.928 18.324 Z" transform="matrix(0.9999999999999999, 0, 0, 0.9999999999999999, -8.881784197001252e-16, 0)"/>
</svg>