<svg viewBox="4 3.6 16 16" xmlns="http://www.w3.org/2000/svg">
  <path fill="#ffffff" d="M 15.974 13.77 L 8.109 13.77 C 8.066 13.77 8.024 13.759 7.986 13.74 C 6.641 13.599 5.6 12.468 5.6 11.128 C 5.6 9.671 6.798 8.487 8.268 8.487 C 8.328 8.487 8.385 8.487 8.444 8.488 C 8.487 6.494 10.115 4.901 12.109 4.9 C 14.119 4.9 15.754 6.543 15.754 8.562 C 15.754 8.6 15.753 8.636 15.75 8.67 C 15.787 8.668 15.822 8.667 15.859 8.667 C 17.255 8.667 18.39 9.812 18.39 11.218 C 18.39 12.595 17.359 13.691 15.99 13.769 C 15.984 13.77 15.98 13.77 15.974 13.77 Z M 8.197 13.207 L 15.967 13.207 C 17.022 13.152 17.845 12.274 17.831 11.218 C 17.831 10.122 16.946 9.23 15.86 9.23 C 15.719 9.23 15.598 9.25 15.476 9.271 C 15.305 9.299 15.149 9.167 15.148 8.993 C 15.148 8.913 15.16 8.833 15.173 8.749 C 15.184 8.691 15.195 8.629 15.195 8.562 C 15.195 6.854 13.81 5.462 12.11 5.462 C 10.396 5.463 9.007 6.849 9.004 8.562 C 9.004 8.594 9.01 8.622 9.014 8.649 C 9.019 8.702 9.026 8.753 9.026 8.813 C 9.026 8.901 8.985 8.985 8.915 9.039 C 8.844 9.091 8.753 9.108 8.667 9.083 C 8.547 9.048 8.436 9.048 8.268 9.048 C 7.107 9.048 6.161 9.981 6.161 11.127 C 6.161 12.218 6.998 13.103 8.107 13.185 C 8.139 13.188 8.169 13.197 8.197 13.207 Z M 7.79 16.244 C 7.574 16.244 7.439 16.01 7.547 15.822 C 7.559 15.8 7.575 15.781 7.593 15.765 L 8.526 14.834 C 8.672 14.674 8.935 14.733 9 14.939 C 9.033 15.043 9.002 15.157 8.922 15.23 L 7.989 16.161 C 7.936 16.214 7.865 16.244 7.79 16.244 Z M 9.518 16.244 C 9.302 16.244 9.166 16.01 9.275 15.822 C 9.287 15.8 9.302 15.781 9.32 15.765 L 10.253 14.834 C 10.398 14.674 10.663 14.733 10.728 14.939 C 10.76 15.043 10.73 15.157 10.649 15.23 L 9.717 16.161 C 9.664 16.214 9.593 16.244 9.518 16.244 Z M 11.245 16.244 C 11.029 16.244 10.894 16.01 11.002 15.822 C 11.014 15.8 11.03 15.781 11.046 15.765 L 11.981 14.834 C 12.125 14.674 12.391 14.733 12.455 14.939 C 12.488 15.043 12.457 15.157 12.377 15.23 L 11.444 16.161 C 11.392 16.214 11.32 16.244 11.245 16.244 Z M 12.974 16.244 C 12.757 16.244 12.622 16.01 12.73 15.822 C 12.742 15.8 12.758 15.781 12.776 15.765 L 13.709 14.834 C 13.854 14.674 14.119 14.733 14.183 14.939 C 14.216 15.043 14.185 15.157 14.105 15.23 L 13.173 16.161 C 13.12 16.214 13.048 16.244 12.974 16.244 Z M 14.701 16.244 C 14.485 16.244 14.35 16.01 14.458 15.822 C 14.47 15.8 14.485 15.781 14.502 15.765 L 15.434 14.834 C 15.58 14.674 15.845 14.733 15.909 14.939 C 15.942 15.043 15.911 15.157 15.831 15.23 L 14.9 16.161 C 14.847 16.214 14.776 16.244 14.701 16.244 Z M 7.381 18.4 C 7.165 18.4 7.03 18.167 7.138 17.979 C 7.151 17.957 7.165 17.938 7.182 17.92 L 8.116 16.99 C 8.261 16.83 8.526 16.889 8.591 17.095 C 8.623 17.199 8.593 17.314 8.512 17.387 L 7.58 18.317 C 7.528 18.371 7.455 18.4 7.381 18.4 Z M 9.109 18.4 C 8.892 18.4 8.757 18.167 8.865 17.979 C 8.878 17.957 8.893 17.938 8.91 17.92 L 9.843 16.99 C 9.989 16.83 10.254 16.889 10.317 17.095 C 10.351 17.199 10.32 17.314 10.24 17.387 L 9.308 18.317 C 9.255 18.371 9.182 18.4 9.109 18.4 Z M 10.837 18.4 C 10.621 18.4 10.485 18.167 10.594 17.979 C 10.607 17.957 10.621 17.938 10.638 17.92 L 11.571 16.99 C 11.717 16.83 11.982 16.889 12.047 17.095 C 12.079 17.199 12.049 17.314 11.968 17.387 L 11.036 18.317 C 10.983 18.37 10.911 18.4 10.837 18.4 Z M 12.564 18.4 C 12.348 18.4 12.213 18.167 12.321 17.979 C 12.334 17.957 12.349 17.938 12.365 17.92 L 13.299 16.99 C 13.444 16.83 13.71 16.889 13.773 17.095 C 13.807 17.199 13.776 17.314 13.696 17.387 L 12.763 18.317 C 12.711 18.371 12.638 18.4 12.564 18.4 Z M 14.292 18.4 C 14.076 18.4 13.94 18.167 14.049 17.979 C 14.061 17.957 14.076 17.938 14.093 17.92 L 15.025 16.99 C 15.171 16.83 15.436 16.889 15.499 17.095 C 15.533 17.199 15.501 17.314 15.42 17.387 L 14.491 18.317 C 14.438 18.371 14.366 18.4 14.292 18.4 Z" transform="matrix(0.9999999999999999, 0, 0, 0.9999999999999999, 0, 1.1102230246251565e-16)"/>
</svg>