<svg viewBox="2.6 1.9 16 16" xmlns="http://www.w3.org/2000/svg">
  <path fill="#ffffff" d="M 6.875 9.06 C 6.809 9.06 6.747 9.034 6.701 8.987 C 5.726 7.991 5.726 6.387 6.704 5.412 C 7.672 4.429 9.25 4.41 10.242 5.369 C 10.377 5.497 10.322 5.725 10.142 5.777 C 10.059 5.801 9.969 5.779 9.907 5.719 C 9.104 4.945 7.829 4.96 7.046 5.754 C 6.257 6.542 6.258 7.84 7.048 8.647 C 7.179 8.781 7.117 9.006 6.935 9.052 C 6.916 9.057 6.895 9.06 6.875 9.06 Z M 7.09 4.258 C 6.993 4.258 6.906 4.2 6.867 4.111 L 6.514 3.288 C 6.44 3.116 6.58 2.929 6.766 2.951 C 6.852 2.961 6.926 3.016 6.96 3.096 L 7.313 3.919 C 7.383 4.08 7.265 4.258 7.09 4.258 Z M 4.382 9.295 C 4.195 9.294 4.079 9.091 4.173 8.93 C 4.2 8.885 4.239 8.85 4.286 8.829 L 5.11 8.477 C 5.279 8.396 5.472 8.528 5.458 8.714 C 5.451 8.808 5.39 8.889 5.301 8.922 L 4.477 9.276 C 4.447 9.288 4.415 9.295 4.382 9.295 Z M 5.187 6.198 C 5.157 6.198 5.126 6.192 5.098 6.182 L 4.254 5.848 C 4.08 5.78 4.045 5.549 4.191 5.432 C 4.259 5.378 4.35 5.365 4.431 5.396 L 5.276 5.729 C 5.4 5.778 5.461 5.919 5.412 6.043 C 5.376 6.136 5.287 6.198 5.187 6.198 Z M 9.818 4.218 C 9.647 4.22 9.529 4.045 9.594 3.887 L 9.927 3.043 C 10.004 2.873 10.236 2.849 10.345 3 C 10.392 3.065 10.403 3.148 10.378 3.222 L 10.045 4.065 C 10.008 4.157 9.918 4.218 9.818 4.218 Z"/>
  <path fill="#ffffff" d="M 15.04 12.51 L 8.25 12.51 C 8.213 12.51 8.176 12.501 8.143 12.483 C 6.993 12.362 6.102 11.384 6.102 10.228 C 6.102 8.971 7.136 7.947 8.407 7.947 C 8.456 7.947 8.505 7.947 8.557 7.949 C 8.591 6.234 9.99 4.85 11.704 4.85 C 13.439 4.85 14.853 6.269 14.853 8.013 C 14.853 8.045 14.852 8.077 14.849 8.107 C 16.101 8.054 17.146 9.053 17.149 10.306 C 17.149 11.498 16.228 12.465 15.05 12.51 L 15.04 12.51 Z M 8.406 8.432 C 7.403 8.432 6.586 9.238 6.586 10.228 C 6.586 11.154 7.316 11.936 8.246 12.006 C 8.274 12.007 8.3 12.014 8.325 12.024 L 15.035 12.024 C 15.948 11.988 16.663 11.234 16.663 10.306 C 16.661 9.357 15.891 8.589 14.942 8.589 C 14.837 8.589 14.713 8.607 14.609 8.625 C 14.444 8.653 14.301 8.509 14.33 8.344 C 14.348 8.24 14.365 8.135 14.365 8.012 C 14.365 6.536 13.17 5.334 11.703 5.334 C 10.235 5.334 9.041 6.536 9.041 8.012 C 9.041 8.087 9.041 8.124 9.053 8.171 C 9.097 8.352 8.93 8.513 8.75 8.462 C 8.647 8.432 8.53 8.432 8.406 8.432 Z M 8.778 14.724 C 8.644 14.724 8.535 14.615 8.535 14.481 L 8.535 13.345 C 8.535 13.158 8.738 13.041 8.899 13.135 C 8.974 13.177 9.021 13.258 9.021 13.345 L 9.021 14.481 C 9.022 14.615 8.913 14.725 8.778 14.724 Z M 10.016 16.9 C 9.882 16.9 9.773 16.791 9.773 16.658 L 9.773 15.52 C 9.773 15.333 9.975 15.217 10.137 15.31 C 10.212 15.354 10.258 15.434 10.258 15.52 L 10.258 16.658 C 10.258 16.791 10.15 16.9 10.016 16.9 Z M 11.252 14.724 C 11.119 14.724 11.01 14.615 11.01 14.481 L 11.01 13.345 C 11.01 13.158 11.212 13.041 11.374 13.135 C 11.449 13.177 11.495 13.258 11.495 13.345 L 11.495 14.481 C 11.495 14.615 11.386 14.724 11.252 14.724 Z M 12.488 16.9 C 12.354 16.9 12.245 16.791 12.245 16.658 L 12.245 15.52 C 12.245 15.333 12.448 15.217 12.609 15.31 C 12.685 15.354 12.731 15.434 12.731 15.52 L 12.731 16.658 C 12.731 16.791 12.623 16.9 12.488 16.9 Z M 13.726 14.724 C 13.592 14.724 13.483 14.615 13.483 14.481 L 13.483 13.345 C 13.483 13.158 13.686 13.041 13.847 13.135 C 13.922 13.177 13.968 13.258 13.968 13.345 L 13.968 14.481 C 13.968 14.615 13.859 14.724 13.726 14.724 Z M 14.962 16.9 C 14.828 16.9 14.719 16.791 14.719 16.658 L 14.719 15.52 C 14.719 15.333 14.921 15.217 15.083 15.31 C 15.158 15.354 15.204 15.434 15.204 15.52 L 15.204 16.658 C 15.204 16.791 15.096 16.9 14.962 16.9 Z"/>
</svg>