<svg viewBox="3.5 3 16 16" xmlns="http://www.w3.org/2000/svg">
  <path fill="#ffffff" d="M 7.394 9.456 C 7.001 9.456 6.613 9.362 6.263 9.184 C 5.946 9.017 5.67 8.784 5.449 8.501 C 5.391 8.426 5.384 8.323 5.431 8.24 C 5.478 8.157 5.57 8.11 5.665 8.12 C 6.475 8.211 7.258 7.786 7.623 7.056 C 7.992 6.356 7.912 5.506 7.418 4.887 C 7.303 4.744 7.385 4.532 7.567 4.503 C 7.584 4.5 7.603 4.499 7.621 4.501 C 7.902 4.52 8.219 4.615 8.539 4.776 C 9.747 5.41 10.226 6.908 9.608 8.117 C 9.178 8.941 8.324 9.457 7.394 9.456 Z M 6.207 8.585 C 6.293 8.651 6.385 8.709 6.482 8.761 C 7.468 9.262 8.672 8.877 9.186 7.899 C 9.68 6.914 9.296 5.715 8.321 5.199 C 8.251 5.164 8.179 5.132 8.107 5.104 C 8.423 5.796 8.4 6.599 8.045 7.274 C 7.689 7.99 7 8.481 6.207 8.585 Z" transform="matrix(0.9999999999999999, 0, 0, 1, 0, -5.551115123125783e-17)"/>
  <path fill="#ffffff" d="M 15.519 13.19 L 8.852 13.19 C 8.815 13.19 8.78 13.181 8.747 13.164 C 7.619 13.046 6.745 12.085 6.745 10.951 C 6.745 9.717 7.759 8.712 9.007 8.712 C 9.055 8.712 9.103 8.712 9.154 8.714 C 9.188 7.031 10.56 5.672 12.243 5.672 C 13.947 5.672 15.334 7.064 15.334 8.777 C 15.334 8.809 15.333 8.839 15.331 8.869 C 16.56 8.817 17.586 9.797 17.589 11.028 C 17.589 12.197 16.684 13.147 15.529 13.19 L 15.519 13.19 Z M 9.007 9.188 C 8.022 9.188 7.22 9.979 7.22 10.951 C 7.22 11.86 7.936 12.627 8.85 12.696 C 8.877 12.697 8.902 12.704 8.926 12.713 L 15.513 12.713 C 16.409 12.678 17.111 11.938 17.111 11.028 C 17.109 10.096 16.354 9.342 15.422 9.342 C 15.319 9.342 15.198 9.359 15.094 9.378 C 14.933 9.405 14.792 9.264 14.821 9.102 C 14.839 8.999 14.856 8.897 14.856 8.776 C 14.856 7.327 13.684 6.147 12.242 6.147 C 10.801 6.147 9.63 7.327 9.63 8.776 C 9.63 8.849 9.63 8.885 9.642 8.931 C 9.685 9.109 9.52 9.267 9.345 9.217 C 9.242 9.188 9.128 9.188 9.007 9.188 Z M 9.371 15.364 C 9.24 15.364 9.134 15.257 9.134 15.126 L 9.134 14.01 C 9.134 13.827 9.332 13.712 9.491 13.804 C 9.565 13.846 9.609 13.925 9.609 14.01 L 9.609 15.126 C 9.61 15.257 9.504 15.364 9.371 15.364 Z M 10.586 17.5 C 10.454 17.5 10.348 17.393 10.348 17.262 L 10.348 16.145 C 10.348 15.962 10.546 15.848 10.706 15.94 C 10.778 15.982 10.824 16.061 10.824 16.145 L 10.824 17.262 C 10.824 17.393 10.718 17.5 10.586 17.5 Z M 11.8 15.364 C 11.669 15.364 11.562 15.257 11.562 15.126 L 11.562 14.01 C 11.562 13.827 11.76 13.712 11.919 13.804 C 11.994 13.846 12.038 13.925 12.038 14.01 L 12.038 15.126 C 12.038 15.257 11.932 15.364 11.8 15.364 Z M 13.014 17.5 C 12.882 17.5 12.775 17.393 12.775 17.262 L 12.775 16.145 C 12.775 15.962 12.974 15.848 13.132 15.94 C 13.206 15.982 13.252 16.061 13.252 16.145 L 13.252 17.262 C 13.252 17.393 13.144 17.5 13.014 17.5 Z M 14.228 15.364 C 14.097 15.364 13.989 15.257 13.989 15.126 L 13.989 14.01 C 13.989 13.827 14.189 13.712 14.347 13.804 C 14.421 13.846 14.467 13.925 14.467 14.01 L 14.467 15.126 C 14.467 15.257 14.36 15.364 14.228 15.364 Z M 15.442 17.5 C 15.31 17.5 15.204 17.393 15.204 17.262 L 15.204 16.145 C 15.204 15.962 15.402 15.848 15.56 15.94 C 15.634 15.982 15.679 16.061 15.679 16.145 L 15.679 17.262 C 15.679 17.393 15.573 17.5 15.442 17.5 Z" transform="matrix(0.9999999999999999, 0, 0, 1, 0, -5.551115123125783e-17)"/>
</svg>