<svg viewBox="1.3 2.4 16 16" xmlns="http://www.w3.org/2000/svg">
  <path fill="#ffffff" d="M 10.735 11.375 C 10.545 11.375 10.427 11.171 10.521 11.006 C 10.565 10.931 10.647 10.884 10.735 10.884 L 14.66 10.884 C 15.584 10.828 16.304 10.065 16.307 9.139 C 16.305 8.176 15.523 7.396 14.561 7.396 C 14.454 7.396 14.328 7.414 14.222 7.432 C 14.056 7.46 13.912 7.316 13.939 7.15 C 13.956 7.042 13.976 6.936 13.976 6.812 C 13.976 5.314 12.763 4.094 11.274 4.094 C 10.657 4.094 10.054 4.314 9.577 4.712 C 9.431 4.832 9.21 4.745 9.18 4.559 C 9.167 4.475 9.197 4.392 9.26 4.335 C 9.825 3.861 10.537 3.602 11.274 3.601 C 13.034 3.601 14.469 5.041 14.469 6.812 C 14.469 6.844 14.467 6.876 14.465 6.907 C 14.499 6.906 14.531 6.904 14.562 6.904 C 15.796 6.905 16.798 7.905 16.8 9.14 C 16.796 10.332 15.864 11.312 14.674 11.376 L 10.735 11.375 Z"/>
  <path fill="#ffffff" d="M 8.184 17.127 C 8.028 17.127 7.912 16.983 7.942 16.831 L 8.441 14.381 L 7.386 14.381 C 7.225 14.38 7.107 14.225 7.149 14.068 L 7.986 11.064 C 8.015 10.956 8.113 10.884 8.223 10.884 L 10.396 10.884 C 10.586 10.884 10.704 11.088 10.609 11.253 C 10.607 11.257 10.603 11.264 10.599 11.268 L 9.607 12.715 L 10.874 12.715 C 11.064 12.715 11.182 12.919 11.088 13.084 C 11.085 13.089 11.081 13.095 11.077 13.099 L 8.387 17.021 C 8.341 17.086 8.265 17.127 8.184 17.127 Z M 7.711 13.887 L 8.742 13.887 C 8.897 13.887 9.015 14.031 8.984 14.184 L 8.667 15.741 L 10.407 13.205 L 9.141 13.205 C 8.952 13.205 8.833 13.001 8.927 12.837 C 8.93 12.831 8.935 12.826 8.937 12.821 L 9.929 11.375 L 8.411 11.375 L 7.711 13.887 Z"/>
  <path fill="#ffffff" d="M 10.874 11.375 L 3.979 11.375 C 3.942 11.375 3.905 11.366 3.871 11.349 C 2.693 11.237 1.794 10.244 1.8 9.06 C 1.802 7.782 2.839 6.745 4.119 6.745 C 4.171 6.745 4.221 6.745 4.272 6.745 C 4.31 4.998 5.739 3.601 7.486 3.6 C 9.249 3.6 10.682 5.041 10.682 6.811 C 10.682 6.844 10.681 6.875 10.679 6.906 C 10.71 6.904 10.742 6.902 10.775 6.902 C 11.998 6.902 12.993 7.906 12.993 9.139 C 12.993 10.346 12.088 11.307 10.888 11.375 L 10.874 11.375 Z M 4.057 10.884 L 10.867 10.884 C 11.799 10.827 12.501 10.078 12.501 9.139 C 12.501 8.178 11.727 7.396 10.775 7.396 C 10.649 7.396 10.543 7.414 10.437 7.432 C 10.27 7.46 10.126 7.316 10.153 7.15 C 10.171 7.042 10.189 6.936 10.189 6.812 C 10.189 5.314 8.976 4.094 7.487 4.094 C 5.985 4.094 4.766 5.31 4.765 6.812 C 4.765 6.84 4.768 6.861 4.771 6.886 C 4.777 6.932 4.784 6.978 4.784 7.031 C 4.783 7.195 4.627 7.312 4.47 7.267 C 4.363 7.236 4.266 7.236 4.12 7.236 C 3.112 7.236 2.295 8.052 2.294 9.059 C 2.289 10.012 3.028 10.803 3.978 10.864 C 4.006 10.865 4.032 10.873 4.057 10.884 Z"/>
</svg>