<svg viewBox="4 3.4 16 16" xmlns="http://www.w3.org/2000/svg">
  <path fill="#ffffff" d="M 15.976 13.358 L 8.033 13.358 C 7.99 13.358 7.947 13.347 7.908 13.327 C 6.551 13.186 5.5 12.043 5.5 10.69 C 5.5 9.219 6.708 8.022 8.193 8.022 C 8.255 8.022 8.312 8.022 8.37 8.024 C 8.414 6.01 10.06 4.401 12.074 4.4 C 14.102 4.4 15.754 6.06 15.754 8.099 C 15.754 8.137 15.753 8.174 15.75 8.208 C 15.786 8.207 15.823 8.205 15.862 8.205 C 17.271 8.205 18.418 9.36 18.418 10.781 C 18.418 12.17 17.375 13.278 15.994 13.357 L 15.976 13.358 Z M 8.123 12.79 L 15.968 12.79 C 17.041 12.725 17.849 11.862 17.849 10.781 C 17.849 9.674 16.958 8.773 15.861 8.773 C 15.718 8.773 15.594 8.794 15.472 8.815 C 15.389 8.829 15.305 8.807 15.242 8.752 C 15.178 8.698 15.142 8.619 15.142 8.535 C 15.142 8.455 15.154 8.374 15.166 8.289 C 15.176 8.23 15.187 8.167 15.187 8.1 C 15.187 6.374 13.79 4.969 12.074 4.969 C 10.343 4.969 8.94 6.37 8.936 8.1 C 8.936 8.132 8.941 8.158 8.944 8.185 C 8.954 8.24 8.959 8.296 8.96 8.351 C 8.96 8.541 8.779 8.676 8.598 8.625 C 8.476 8.59 8.364 8.59 8.193 8.59 C 7.022 8.59 6.068 9.533 6.068 10.69 C 6.068 11.792 6.912 12.685 8.032 12.768 C 8.064 12.77 8.094 12.778 8.123 12.79 Z M 8.584 15.764 C 8.428 15.764 8.301 15.637 8.301 15.48 L 8.301 14.356 C 8.301 14.139 8.537 14.002 8.726 14.111 C 8.814 14.161 8.868 14.255 8.868 14.356 L 8.868 15.48 C 8.868 15.637 8.742 15.764 8.584 15.764 Z" transform="matrix(1, 0, 0, 1, 0, 5.551115123125783e-17)"/>
  <path fill="#ffffff" d="M 9.158 15.214 L 8.033 15.214 C 7.814 15.214 7.679 14.978 7.787 14.789 C 7.838 14.701 7.932 14.647 8.033 14.647 L 9.158 14.647 C 9.377 14.647 9.514 14.884 9.404 15.072 C 9.353 15.161 9.26 15.214 9.158 15.214 Z M 11.913 15.764 C 11.756 15.764 11.629 15.637 11.629 15.48 L 11.629 14.356 C 11.629 14.139 11.866 14.002 12.054 14.111 C 12.142 14.161 12.196 14.255 12.196 14.356 L 12.196 15.48 C 12.196 15.637 12.069 15.764 11.913 15.764 Z" transform="matrix(1, 0, 0, 1, 0, 5.551115123125783e-17)"/>
  <path fill="#ffffff" d="M 12.487 15.214 L 11.339 15.214 C 11.12 15.214 10.984 14.978 11.094 14.789 C 11.144 14.701 11.238 14.647 11.339 14.647 L 12.487 14.647 C 12.705 14.647 12.841 14.884 12.733 15.072 C 12.682 15.161 12.588 15.214 12.487 15.214 Z M 15.402 15.994 C 15.246 15.994 15.119 15.867 15.119 15.711 L 15.119 14.587 C 15.119 14.368 15.355 14.232 15.544 14.341 C 15.632 14.392 15.687 14.485 15.687 14.587 L 15.687 15.711 C 15.687 15.867 15.56 15.994 15.402 15.994 Z" transform="matrix(1, 0, 0, 1, 0, 5.551115123125783e-17)"/>
  <path fill="#ffffff" d="M 15.976 15.444 L 14.851 15.444 C 14.632 15.444 14.497 15.207 14.605 15.018 C 14.656 14.93 14.75 14.876 14.851 14.876 L 15.976 14.876 C 16.195 14.876 16.332 15.113 16.222 15.302 C 16.171 15.39 16.078 15.444 15.976 15.444 Z M 10.191 18.193 C 10.034 18.193 9.907 18.066 9.907 17.91 L 9.907 16.786 C 9.907 16.568 10.144 16.431 10.333 16.54 C 10.42 16.591 10.474 16.684 10.474 16.786 L 10.474 17.91 C 10.474 18.066 10.347 18.193 10.191 18.193 Z" transform="matrix(1, 0, 0, 1, 0, 5.551115123125783e-17)"/>
  <path fill="#ffffff" d="M 10.765 17.644 L 9.641 17.644 C 9.422 17.644 9.285 17.407 9.395 17.219 C 9.446 17.13 9.54 17.076 9.641 17.076 L 10.766 17.076 C 10.984 17.076 11.12 17.313 11.011 17.502 C 10.96 17.59 10.866 17.644 10.765 17.644 Z M 13.703 18.4 C 13.547 18.4 13.42 18.273 13.42 18.117 L 13.42 16.97 C 13.42 16.751 13.656 16.616 13.845 16.724 C 13.933 16.775 13.987 16.869 13.987 16.97 L 13.987 18.117 C 13.987 18.273 13.86 18.4 13.703 18.4 Z" transform="matrix(1, 0, 0, 1, 0, 5.551115123125783e-17)"/>
  <path fill="#ffffff" d="M 14.254 17.827 L 13.129 17.827 C 12.911 17.827 12.775 17.59 12.883 17.402 C 12.934 17.313 13.028 17.26 13.129 17.26 L 14.254 17.26 C 14.473 17.26 14.61 17.495 14.5 17.685 C 14.449 17.773 14.356 17.827 14.254 17.827 Z" transform="matrix(1, 0, 0, 1, 0, 5.551115123125783e-17)"/>
</svg>