<svg viewBox="5.4 4.8 16 16" xmlns="http://www.w3.org/2000/svg">
  <path fill="#ffffff" d="M 16.628 12.662 L 10.149 12.662 C 9.961 12.662 9.807 12.508 9.807 12.319 C 9.807 10.358 11.403 8.763 13.367 8.763 C 15.305 8.763 16.892 10.298 16.952 12.207 C 17.029 12.43 16.863 12.662 16.628 12.662 Z M 10.513 11.976 L 16.247 11.976 C 16.075 10.554 14.848 9.448 13.367 9.448 C 11.898 9.448 10.683 10.554 10.513 11.976 Z M 13.367 7.76 C 13.177 7.76 13.024 7.606 13.024 7.417 L 13.024 6.143 C 13.024 5.879 13.31 5.714 13.539 5.846 C 13.644 5.907 13.709 6.02 13.709 6.143 L 13.709 7.417 C 13.709 7.606 13.555 7.76 13.367 7.76 Z M 19.689 12.8 L 18.415 12.8 C 18.151 12.8 17.986 12.514 18.118 12.286 C 18.178 12.179 18.292 12.114 18.415 12.114 L 19.689 12.114 C 19.952 12.114 20.118 12.401 19.985 12.628 C 19.924 12.734 19.811 12.8 19.689 12.8 Z M 8.319 12.8 L 7.043 12.8 C 6.779 12.8 6.614 12.514 6.746 12.286 C 6.807 12.179 6.92 12.114 7.043 12.114 L 8.319 12.114 C 8.583 12.114 8.748 12.401 8.616 12.628 C 8.555 12.734 8.441 12.8 8.319 12.8 Z M 9.788 9.226 C 9.698 9.226 9.61 9.191 9.546 9.126 L 8.658 8.24 C 8.524 8.106 8.524 7.89 8.656 7.756 C 8.79 7.621 9.009 7.621 9.141 7.756 L 10.03 8.642 C 10.216 8.829 10.13 9.148 9.876 9.215 C 9.846 9.223 9.817 9.226 9.788 9.226 Z M 16.943 9.226 C 16.68 9.226 16.514 8.941 16.647 8.712 C 16.661 8.687 16.68 8.663 16.701 8.641 L 17.589 7.755 C 17.767 7.56 18.089 7.633 18.169 7.884 C 18.208 8.011 18.17 8.15 18.072 8.24 L 17.185 9.126 C 17.121 9.191 17.035 9.226 16.943 9.226 Z"/>
  <g transform="matrix(0.04549499973654748, 0, 0, 0.04549499973654747, 8.47159183011196, 11.710228755004856)">
    <path fill="#ffffff" d="M144.797,47.095c0-4.142-3.358-7.5-7.5-7.5H7.5c-4.142,0-7.5,3.358-7.5,7.5c0,4.142,3.358,7.5,7.5,7.5h129.797 C141.439,54.595,144.797,51.237,144.797,47.095z"/>
    <path fill="#ffffff" d="M209.93,70.405H58.632c-4.142,0-7.5,3.358-7.5,7.5s3.358,7.5,7.5,7.5H209.93c4.142,0,7.5-3.358,7.5-7.5 S214.072,70.405,209.93,70.405z"/>
    <path fill="#ffffff" d="M174.53,116.214c4.142,0,7.5-3.358,7.5-7.5c0-4.142-3.358-7.5-7.5-7.5H22.446c-4.142,0-7.5,3.358-7.5,7.5 c0,4.142,3.358,7.5,7.5,7.5H174.53z"/>
    <path fill="#ffffff" d="M199.441,132.024H47.619c-4.142,0-7.5,3.358-7.5,7.5s3.358,7.5,7.5,7.5h151.822c4.142,0,7.5-3.358,7.5-7.5 S203.583,132.024,199.441,132.024z"/>
    <path fill="#ffffff" d="M125.759,162.835H25.068c-4.142,0-7.5,3.358-7.5,7.5c0,4.142,3.358,7.5,7.5,7.5h100.69c4.142,0,7.5-3.358,7.5-7.5 C133.259,166.193,129.901,162.835,125.759,162.835z"/>
  </g>
</svg>