<svg viewBox="0 0 30 30" xmlns="http://www.w3.org/2000/svg">
  <path fill="#ffffff" d="M 12.743 1.5 C 6.547 1.5 1.5 6.547 1.5 12.743 C 1.5 18.939 6.547 23.987 12.743 23.987 C 15.437 23.987 17.912 23.029 19.852 21.442 L 26.564 28.154 C 27.164 28.778 28.215 28.52 28.455 27.689 C 28.572 27.287 28.456 26.854 28.154 26.564 L 21.442 19.852 C 23.029 17.912 23.987 15.437 23.987 12.743 C 23.987 6.547 18.939 1.5 12.743 1.5 Z M 12.743 3.748 C 17.724 3.748 21.738 7.762 21.738 12.743 C 21.738 17.724 17.724 21.738 12.743 21.738 C 7.762 21.738 3.748 17.724 3.748 12.743 C 3.748 7.762 7.762 3.748 12.743 3.748 Z" transform="matrix(0.9999999999999999, 0, 0, 1, -1.7763568394002505e-15, 0)"/>
</svg>