<svg viewBox="0 0 512 512" xmlns="http://www.w3.org/2000/svg">
  <path fill="#ffffff" d="M 263.678 41 C 140.697 41 41.001 140.696 41.001 263.678 C 41.001 353.901 92.831 434.794 173.081 469.722 C 183.919 474.445 195.805 465.665 194.477 453.918 C 194.305 452.397 193.906 450.911 193.295 449.508 C 184.081 428.353 179.215 401.258 179.215 371.177 C 179.215 265.329 265.329 179.214 371.178 179.214 C 401.258 179.214 428.354 184.08 449.508 193.294 C 460.346 198.018 472.232 189.238 470.904 177.491 C 470.732 175.97 470.334 174.484 469.722 173.081 C 434.794 92.83 353.901 41 263.678 41 Z" style="transform-origin: 256.003px 256.012px;" transform="matrix(-1, 0, 0, -1, -0.000007213344, -0.000007213584)"/>
</svg>