<?xml version="1.0" encoding="utf-8"?>
<svg viewBox="-0.0003 -0.0005 512.0078 512.0099" xmlns="http://www.w3.org/2000/svg">
  <path fill="#ffffff" d="M 437.022 93.271 C 395.272 51.274 340.161 25.184 281.215 19.511 C 277.548 19.129 274.458 16.605 273.352 13.088 C 269.529 -0.267 252.681 -4.475 243.028 5.515 C 240.971 7.642 239.47 10.243 238.655 13.088 C 237.549 16.605 234.459 19.129 230.792 19.511 C 100.011 32.453 0.273 142.321 0.002 273.741 C -0.098 280.084 3.015 286.048 8.277 289.592 C 15.521 294.328 25.094 293.336 31.214 287.215 C 54.345 264.093 91.829 264.062 114.997 287.147 C 122.071 294.352 133.657 294.429 140.826 287.318 C 165.929 262.335 205.534 259.482 233.958 280.609 C 236.326 282.389 237.719 285.179 237.718 288.141 L 237.718 456.622 C 237.718 466.451 230.175 474.908 220.358 475.411 C 209.908 475.94 201.146 467.61 201.146 457.148 C 201.148 446.918 192.757 438.676 182.529 438.862 C 172.243 439.045 164.358 448.13 164.586 458.405 C 165.296 487.917 189.206 511.59 218.724 512.005 C 249.444 512.394 274.29 486.942 274.29 456.222 L 274.29 288.141 C 274.289 285.179 275.682 282.389 278.05 280.609 C 306.43 259.515 345.964 262.322 371.079 287.215 C 378.219 294.351 389.79 294.351 396.93 287.215 C 420.094 264.071 457.63 264.071 480.794 287.215 C 486.725 293.147 495.931 294.282 503.125 289.969 C 508.738 286.497 512.111 280.329 512.005 273.729 C 512.039 205.991 485.05 141.038 437.022 93.271 Z"/>
</svg>