<svg viewBox="0 0 32 32" xmlns="http://www.w3.org/2000/svg">
  <path fill="#ffffff" d="M 16.18 11.971 C 16.18 9.509 12.487 2.123 11.735 0.67 C 11.303 -0.174 10.121 -0.233 9.607 0.563 C 9.583 0.597 9.562 0.633 9.545 0.67 C 8.793 2.135 5.1 9.57 5.1 11.971 C 5.187 14.947 7.662 17.296 10.639 17.227 C 13.617 17.296 16.092 14.947 16.18 11.971 Z M 23.444 9.312 C 23.029 8.459 21.849 8.373 21.317 9.157 C 21.284 9.208 21.253 9.259 21.226 9.312 C 20.586 10.667 17.412 17.486 17.412 19.689 C 17.412 23.481 21.514 25.849 24.796 23.954 C 26.319 23.074 27.258 21.449 27.258 19.689 C 27.258 17.486 24.084 10.667 23.444 9.312 Z M 13.717 19.689 C 13.226 19.688 12.782 19.979 12.585 20.429 C 11.982 21.819 10.025 26.473 10.025 28.085 C 9.969 30.184 11.62 31.933 13.717 32 C 15.817 31.933 17.466 30.184 17.412 28.085 C 17.412 26.473 15.454 21.819 14.849 20.429 C 14.654 19.979 14.207 19.688 13.717 19.689 Z" transform="matrix(1, 0, 0, 1, -1.7763568394002505e-15, -1.7763568394002505e-15)"/>
</svg>