<svg viewBox="5.2 5.2 16 16" xmlns="http://www.w3.org/2000/svg">
  <path fill="#ffffff" d="M 13.209 16.562 C 11.294 16.562 9.734 14.993 9.734 13.063 C 9.736 11.147 11.292 9.594 13.209 9.593 C 15.142 9.593 16.713 11.149 16.713 13.063 C 16.709 14.996 15.142 16.561 13.209 16.562 Z M 13.209 10.263 C 11.661 10.263 10.406 11.516 10.403 13.063 C 10.403 14.624 11.661 15.893 13.209 15.893 C 14.77 15.891 16.04 14.625 16.041 13.063 C 16.041 11.519 14.77 10.263 13.209 10.263 Z M 13.209 8.613 C 13.026 8.613 12.874 8.464 12.874 8.279 L 12.874 7.034 C 12.874 6.778 13.154 6.616 13.377 6.745 C 13.481 6.804 13.545 6.914 13.545 7.034 L 13.545 8.279 C 13.545 8.464 13.395 8.613 13.209 8.613 Z M 13.209 19.7 C 13.026 19.7 12.874 19.548 12.874 19.364 L 12.874 18.121 C 12.874 17.863 13.154 17.701 13.377 17.83 C 13.481 17.89 13.545 18 13.545 18.121 L 13.545 19.364 C 13.545 19.548 13.395 19.7 13.209 19.7 Z M 19.383 13.536 L 18.166 13.536 C 17.906 13.536 17.746 13.255 17.874 13.032 C 17.935 12.928 18.045 12.865 18.166 12.865 L 19.383 12.865 C 19.641 12.865 19.803 13.144 19.674 13.368 C 19.613 13.471 19.504 13.536 19.383 13.536 Z M 8.28 13.536 L 7.034 13.536 C 6.778 13.536 6.616 13.255 6.745 13.032 C 6.804 12.928 6.914 12.865 7.034 12.865 L 8.28 12.865 C 8.539 12.865 8.698 13.144 8.571 13.368 C 8.511 13.471 8.399 13.536 8.28 13.536 Z M 17.597 17.889 C 17.511 17.889 17.426 17.855 17.365 17.795 L 16.469 16.928 C 16.284 16.75 16.362 16.437 16.609 16.366 C 16.725 16.333 16.848 16.365 16.936 16.447 L 17.83 17.313 C 18.016 17.492 17.939 17.804 17.69 17.875 C 17.659 17.885 17.628 17.889 17.597 17.889 Z M 9.743 10.048 C 9.656 10.048 9.571 10.013 9.51 9.952 L 8.617 9.087 C 8.431 8.909 8.511 8.594 8.758 8.525 C 8.873 8.492 8.996 8.522 9.083 8.606 L 9.977 9.47 C 10.163 9.65 10.084 9.962 9.837 10.033 C 9.806 10.043 9.775 10.048 9.743 10.048 Z M 8.85 17.889 C 8.592 17.887 8.431 17.608 8.561 17.386 C 8.577 17.359 8.594 17.336 8.617 17.314 L 9.512 16.447 C 9.696 16.268 10.006 16.358 10.068 16.607 C 10.098 16.724 10.062 16.846 9.977 16.93 L 9.083 17.795 C 9.02 17.855 8.936 17.889 8.85 17.889 Z M 16.702 10.048 C 16.444 10.048 16.283 9.768 16.412 9.545 C 16.427 9.517 16.447 9.493 16.469 9.47 L 17.365 8.606 C 17.55 8.427 17.86 8.515 17.922 8.763 C 17.951 8.88 17.915 9.003 17.83 9.087 L 16.936 9.952 C 16.873 10.013 16.789 10.048 16.702 10.048 Z" transform="matrix(0.9999999999999999, 0, 0, 0.9999999999999999, 0, 0)"/>
</svg>