<svg viewBox="3 4.7 16 16" xmlns="http://www.w3.org/2000/svg">
  <path fill="#ffffff" d="M 6.833 14.009 C 6.757 14.009 6.684 13.98 6.629 13.926 C 6.048 13.358 5.727 12.598 5.727 11.785 C 5.727 10.973 6.048 10.212 6.629 9.643 C 7.191 9.068 7.963 8.744 8.767 8.747 L 8.768 8.747 C 9.582 8.747 10.343 9.067 10.912 9.648 C 11.07 9.808 10.994 10.079 10.777 10.135 C 10.675 10.161 10.569 10.131 10.496 10.056 C 10.042 9.59 9.418 9.328 8.768 9.331 L 8.767 9.331 C 8.111 9.331 7.499 9.588 7.041 10.055 C 6.569 10.518 6.31 11.131 6.31 11.784 C 6.31 12.438 6.569 13.051 7.037 13.508 C 7.152 13.62 7.155 13.805 7.041 13.921 C 6.987 13.978 6.912 14.009 6.833 14.009 Z M 7.163 8.212 C 7.043 8.212 6.936 8.139 6.893 8.027 L 6.492 7.014 C 6.398 6.81 6.56 6.58 6.784 6.601 C 6.899 6.612 6.997 6.69 7.034 6.799 L 7.434 7.812 C 7.512 8.004 7.37 8.214 7.163 8.212 Z M 3.789 14.197 C 3.564 14.195 3.426 13.95 3.541 13.756 C 3.573 13.701 3.622 13.658 3.68 13.634 L 4.671 13.234 C 4.82 13.174 4.99 13.247 5.05 13.396 C 5.111 13.545 5.039 13.716 4.889 13.775 L 3.899 14.175 C 3.864 14.19 3.827 14.198 3.789 14.197 Z M 4.803 10.497 C 4.766 10.497 4.728 10.491 4.694 10.476 L 3.702 10.077 C 3.493 9.993 3.454 9.714 3.631 9.575 C 3.713 9.51 3.824 9.494 3.921 9.534 L 4.912 9.934 C 5.061 9.994 5.134 10.164 5.073 10.314 C 5.029 10.425 4.922 10.497 4.803 10.497 Z M 10.443 8.235 C 10.234 8.235 10.092 8.021 10.176 7.828 L 10.601 6.839 C 10.694 6.635 10.974 6.609 11.103 6.793 C 11.16 6.873 11.173 6.977 11.136 7.068 L 10.711 8.058 C 10.665 8.166 10.56 8.235 10.443 8.235 Z" transform="matrix(1, 0, 0, 1, 4.440892098500626e-16, 0)"/>
  <path fill="#ffffff" d="M 15.967 18.77 L 7.8 18.77 C 7.752 18.77 7.705 18.758 7.662 18.734 C 6.263 18.561 5.22 17.401 5.22 16.003 C 5.22 14.492 6.461 13.261 7.988 13.261 C 8.049 13.261 8.109 13.262 8.17 13.268 C 8.221 11.215 9.898 9.56 11.954 9.56 C 14.041 9.56 15.739 11.266 15.739 13.363 C 15.739 13.4 15.738 13.437 15.735 13.475 C 17.241 13.411 18.497 14.613 18.5 16.12 C 18.496 17.53 17.391 18.693 15.983 18.768 L 15.967 18.77 Z M 7.891 18.186 L 15.959 18.186 C 17.054 18.123 17.913 17.219 17.917 16.12 C 17.915 14.98 16.991 14.057 15.85 14.056 C 15.702 14.056 15.575 14.077 15.45 14.098 C 15.255 14.129 15.086 13.964 15.112 13.768 C 15.138 13.598 15.157 13.481 15.157 13.363 C 15.157 11.588 13.72 10.143 11.955 10.143 C 10.19 10.143 8.753 11.588 8.753 13.363 C 8.753 13.399 8.753 13.477 8.762 13.504 C 8.793 13.6 8.772 13.705 8.709 13.784 C 8.644 13.861 8.545 13.899 8.446 13.888 C 8.289 13.865 8.14 13.844 7.99 13.844 C 6.785 13.844 5.804 14.812 5.804 16.002 C 5.804 17.108 6.684 18.057 7.805 18.163 C 7.834 18.166 7.864 18.173 7.891 18.186 Z" transform="matrix(1, 0, 0, 1, 4.440892098500626e-16, 0)"/>
</svg>