<svg viewBox="1.5 5.8 16 16" xmlns="http://www.w3.org/2000/svg">
  <path fill="#ffffff" d="M 13.149 17.529 C 12.943 17.529 12.815 17.307 12.918 17.129 C 12.965 17.046 13.054 16.995 13.149 16.995 L 15.202 16.995 C 16.184 16.938 16.966 16.107 16.966 15.105 C 16.964 14.061 16.117 13.215 15.073 13.215 C 14.972 13.215 14.871 13.231 14.758 13.247 C 14.671 13.259 14.559 13.234 14.499 13.173 C 14.44 13.111 14.384 13.029 14.398 12.945 C 14.418 12.83 14.438 12.715 14.438 12.581 C 14.438 10.956 13.124 9.634 11.509 9.634 C 10.545 9.634 9.672 10.095 9.113 10.899 C 8.987 11.062 8.732 11.027 8.655 10.837 C 8.622 10.758 8.63 10.668 8.675 10.595 C 9.318 9.663 10.376 9.104 11.509 9.1 C 13.418 9.1 14.971 10.661 14.971 12.581 C 14.971 12.616 14.971 12.651 14.969 12.684 C 16.347 12.626 17.496 13.726 17.5 15.105 C 17.501 16.389 16.501 17.452 15.218 17.528 L 13.149 17.529 Z"/>
  <path fill="#ffffff" d="M 11.336 18.629 L 3.861 18.629 C 3.819 18.629 3.778 18.618 3.741 18.599 C 2.457 18.444 1.5 17.381 1.5 16.097 C 1.503 14.646 2.73 13.498 4.178 13.593 C 4.231 11.705 5.775 10.202 7.664 10.201 C 9.574 10.201 11.127 11.762 11.127 13.681 C 11.127 13.715 11.127 13.749 11.124 13.784 C 11.157 13.782 11.192 13.781 11.227 13.781 C 12.576 13.781 13.632 14.846 13.632 16.205 C 13.634 17.489 12.633 18.553 11.351 18.628 L 11.336 18.629 Z M 3.944 18.094 L 11.329 18.094 C 12.325 18.031 13.101 17.203 13.099 16.204 C 13.099 15.145 12.276 14.314 11.227 14.314 C 11.093 14.314 10.977 14.334 10.862 14.353 C 10.684 14.384 10.528 14.232 10.553 14.054 L 10.564 13.977 C 10.58 13.871 10.594 13.776 10.594 13.681 C 10.594 12.056 9.279 10.734 7.664 10.734 C 6.035 10.734 4.714 12.052 4.711 13.681 C 4.711 13.697 4.719 13.746 4.741 13.814 C 4.801 14 4.648 14.185 4.454 14.161 L 4.367 14.15 C 4.246 14.134 4.142 14.12 4.012 14.12 C 2.92 14.12 2.035 15.004 2.033 16.096 C 2.033 17.126 2.82 17.977 3.863 18.073 C 3.891 18.076 3.918 18.084 3.944 18.094 Z"/>
</svg>