<svg viewBox="7.2 4.7 16 16" xmlns="http://www.w3.org/2000/svg">
  <path fill="#ffffff" d="M 14.72 12.8 C 14.158 12.797 13.602 12.666 13.102 12.411 C 12.747 12.222 12.259 11.899 11.927 11.419 C 11.851 11.311 11.844 11.17 11.912 11.054 C 11.973 10.936 12.104 10.869 12.236 10.886 C 13.396 10.988 14.504 10.387 15.05 9.359 C 15.567 8.375 15.45 7.156 14.752 6.253 C 14.669 6.146 14.657 6.001 14.72 5.882 C 14.78 5.761 14.91 5.687 15.046 5.702 C 15.45 5.733 15.904 5.868 16.362 6.097 C 17.203 6.524 17.835 7.273 18.115 8.173 C 18.401 9.071 18.322 10.045 17.892 10.883 C 17.275 12.062 16.052 12.801 14.72 12.8 Z M 12.999 11.544 C 13.126 11.639 13.265 11.726 13.416 11.807 C 14.826 12.522 16.552 11.972 17.287 10.57 C 17.632 9.892 17.696 9.105 17.464 8.38 C 17.24 7.655 16.732 7.051 16.055 6.708 C 15.95 6.654 15.84 6.605 15.728 6.561 C 16.184 7.555 16.156 8.703 15.656 9.676 C 15.124 10.69 14.134 11.387 12.999 11.544 Z" transform="matrix(1.0000000000000002, 0, 0, 1, 0, 0)"/>
  <g transform="matrix(0.04527400061488152, 0, 0, 0.045274000614881516, 10.199999665563753, 11.648878887094762)">
    <path fill="#ffffff" d="M144.797,47.095c0-4.142-3.358-7.5-7.5-7.5H7.5c-4.142,0-7.5,3.358-7.5,7.5c0,4.142,3.358,7.5,7.5,7.5h129.797 C141.439,54.595,144.797,51.237,144.797,47.095z"/>
    <path fill="#ffffff" d="M209.93,70.405H58.632c-4.142,0-7.5,3.358-7.5,7.5s3.358,7.5,7.5,7.5H209.93c4.142,0,7.5-3.358,7.5-7.5 S214.072,70.405,209.93,70.405z"/>
    <path fill="#ffffff" d="M174.53,116.214c4.142,0,7.5-3.358,7.5-7.5c0-4.142-3.358-7.5-7.5-7.5H22.446c-4.142,0-7.5,3.358-7.5,7.5 c0,4.142,3.358,7.5,7.5,7.5H174.53z"/>
    <path fill="#ffffff" d="M199.441,132.024H47.619c-4.142,0-7.5,3.358-7.5,7.5s3.358,7.5,7.5,7.5h151.822c4.142,0,7.5-3.358,7.5-7.5 S203.583,132.024,199.441,132.024z"/>
    <path fill="#ffffff" d="M125.759,162.835H25.068c-4.142,0-7.5,3.358-7.5,7.5c0,4.142,3.358,7.5,7.5,7.5h100.69c4.142,0,7.5-3.358,7.5-7.5 C133.259,166.193,129.901,162.835,125.759,162.835z"/>
  </g>
</svg>