<svg viewBox="0 0 512 512" xmlns="http://www.w3.org/2000/svg">
  <path fill="#ffffff" d="M 256 21 C 126.219 21 21 126.219 21 256 C 21 385.781 126.219 491 256 491 C 385.781 491 491 385.781 491 256 C 491 126.219 385.781 21 256 21 Z M 364.461 292.153 L 256 292.153 C 246.016 292.153 237.923 284.06 237.923 274.077 L 237.923 111.384 C 237.923 97.469 252.987 88.772 265.039 95.73 C 270.632 98.958 274.077 104.926 274.077 111.384 L 274.077 256 L 364.461 256 C 378.377 256 387.074 271.064 380.117 283.116 C 376.888 288.709 370.92 292.153 364.461 292.153 Z" transform="matrix(1, 0, 0, 1, 0, -1.4210854715202004e-14)"/>
</svg>